<svg width="93" height="41" viewBox="0 0 93 41" fill="none" xmlns="http://www.w3.org/2000/svg">
    <path d="M20.1983 0.309082C9.12876 0.309082 0.15332 9.26437 0.15332 20.3091C0.15332 31.3538 9.12876 40.3091 20.1983 40.3091C31.2679 40.3091 40.2433 31.3538 40.2433 20.3091C40.2433 9.26437 31.2679 0.309082 20.1983 0.309082Z" fill="#0DBA4B"/>
    <path d="M26.8316 13.279V19.9185C26.8316 19.9185 26.8316 20.4464 26.8316 20.7254C26.8316 21.7812 26.3098 22.7125 25.505 23.3005C24.9522 23.704 24.2624 23.9443 23.515 23.9443H20.2427C20.2295 23.9443 20.2118 23.9443 20.1985 23.9443C20.1852 23.9443 20.172 23.9443 20.1543 23.9443C18.3412 23.9658 16.882 25.3992 16.882 27.1675C16.882 28.9486 18.3678 30.3907 20.1985 30.3907C22.0292 30.3907 23.515 28.9486 23.515 27.1675C23.515 26.2748 24.2579 25.5538 25.1733 25.5538C26.0754 25.5538 26.8095 26.2533 26.8316 27.1246C26.8316 27.1375 26.8316 27.1503 26.8316 27.1632V27.1718C26.8316 29.5581 25.4961 31.6396 23.515 32.7555C22.5378 33.3049 21.4057 33.6182 20.1985 33.6182C18.9913 33.6182 17.8592 33.3049 16.882 32.7555C14.9318 31.6568 13.6097 29.6267 13.5654 27.292V27.043C13.5875 25.9143 13.9103 24.8585 14.4543 23.94C15.038 22.9658 15.8737 22.1503 16.882 21.5838C17.8592 21.0344 18.9913 20.7211 20.1985 20.7211H22.8296C23.2099 20.7211 23.515 20.425 23.515 20.0559V13.5751C23.515 13.5365 23.515 13.492 23.515 13.4533C23.515 13.4147 23.5168 13.3939 23.515 13.3434C23.4531 11.6138 21.9938 10.2275 20.2029 10.2275H20.1985C18.3678 10.2275 16.882 11.6738 16.882 13.455C16.882 15.2361 18.3678 16.6825 20.1985 16.6825H20.2029C20.9989 16.6825 21.6666 17.2232 21.8302 17.9443C21.8568 18.0559 21.87 18.176 21.87 18.2962C21.87 19.1546 21.1802 19.8542 20.3046 19.9057C20.2692 19.9057 20.2339 19.9099 20.2029 19.9099H20.1985C20.1852 19.9099 20.172 19.9099 20.1587 19.9099C18.9647 19.9014 17.8504 19.5881 16.8864 19.0473C14.9053 17.9314 13.5699 15.8455 13.5699 13.455C13.5654 11.0687 14.9009 8.98284 16.882 7.86696C17.8592 7.31331 18.9913 7 20.1985 7H20.2029C21.4101 7 22.5422 7.31331 23.515 7.86267C25.4475 8.94851 26.7652 10.9614 26.8316 13.279Z" fill="white"/>
    <path d="M53.7721 26.9272C55.7456 26.9272 57.3245 26.2618 58.4522 25.5225C58.9973 25.1898 59.2604 24.7277 59.2604 24.0808V20.6245C59.2604 19.9776 58.753 19.4785 58.0951 19.4785H54.4299C53.8661 19.4785 53.3962 19.9221 53.3962 20.4766C53.3962 21.0311 53.8661 21.4562 54.4299 21.4562H57.0237V23.8775C56.2155 24.469 55.0878 24.8571 53.8473 24.8571C51.1595 24.8571 49.3739 22.8979 49.3739 20.2363V20.1994C49.3739 17.7226 51.2159 15.634 53.6405 15.634C55.069 15.634 55.99 16.0406 56.8358 16.6506C57.0237 16.78 57.2493 16.9093 57.55 16.9093C58.1891 16.9093 58.6966 16.3918 58.6966 15.7819C58.6966 15.3383 58.4522 15.0241 58.2267 14.8577C57.0237 14.0075 55.708 13.5454 53.7345 13.5454C49.7686 13.5454 46.9492 16.6136 46.9492 20.2363V20.2733C46.9492 24.0439 49.6558 26.9272 53.7721 26.9272Z" fill="#2A2A2A"/>
    <path d="M67.6655 26.9087C71.1051 26.9087 73.323 24.968 73.323 21.105V14.8023C73.323 14.1738 72.8155 13.6748 72.1765 13.6748C71.5186 13.6748 71.0112 14.1738 71.0112 14.8023V21.2159C71.0112 23.6003 69.7518 24.8017 67.7031 24.8017C65.6356 24.8017 64.3763 23.5263 64.3763 21.1235V14.8023C64.3763 14.1738 63.8688 13.6748 63.2297 13.6748C62.5719 13.6748 62.0644 14.1738 62.0644 14.8023V21.2159C62.0644 24.968 64.2447 26.9087 67.6655 26.9087Z" fill="#2A2A2A"/>
    <path d="M81.6277 26.8903H81.7592C82.4171 26.8903 82.8494 26.5391 83.0937 25.9661L87.7175 15.2459C87.7739 15.1165 87.8303 14.9316 87.8303 14.7653C87.8303 14.1554 87.3228 13.6748 86.6837 13.6748C86.1387 13.6748 85.7251 14.026 85.5748 14.4141L81.7216 23.8221L77.9249 14.4881C77.737 14.0075 77.3422 13.6748 76.7408 13.6748C76.0829 13.6748 75.5754 14.1738 75.5754 14.7838C75.5754 14.9871 75.6318 15.1534 75.707 15.3198L80.312 25.9661C80.5563 26.5391 80.9886 26.8903 81.6277 26.8903Z" fill="#2A2A2A"/>
    <path d="M90.4128 25.6704C90.4128 26.2988 90.9203 26.7978 91.5781 26.7978C92.2172 26.7978 92.7247 26.2988 92.7247 25.6704V14.8023C92.7247 14.1738 92.2172 13.6748 91.5781 13.6748C90.9203 13.6748 90.4128 14.1738 90.4128 14.8023V25.6704Z" fill="#2A2A2A"/>
</svg>
